<?xml version="1.0" encoding="utf-8"?>
<!-- Generator: Adobe Illustrator 27.4.0, SVG Export Plug-In . SVG Version: 6.00 Build 0)  -->
<svg version="1.1" id="Capa_1" xmlns="http://www.w3.org/2000/svg" xmlns:xlink="http://www.w3.org/1999/xlink" x="0px" y="0px"
	 viewBox="0 0 269.3 380.9" style="enable-background:new 0 0 269.3 380.9;" xml:space="preserve">
<style type="text/css">
	.st0{fill:#6F00FF;}
	.st1{fill:#FFFFFF;}
</style>
<g>
	<path d="M216.2,283.3c0,13.5,0,26.1,0,39.2c8.5,0.7,16,3.3,21.1,10.5c5.9,8.2,6.6,17,2.5,25.8c-4.2,8.9-11.5,14.4-21.6,14.4
		c-62.2,0.2-124.3,0.1-186.5,0.1c-13,0-24.3-10.8-24.6-24.4c-0.3-11.8,7.1-23.4,21.7-25.7c1.3-0.2,2.6-0.4,3.9-0.5
		c0.2-0.5,0.6-1,0.6-1.4c0-11.3-0.1-22.6-0.1-33.9c0-10.6,0.1-21.2,0.2-31.9c0.1-10,0.1-19.9,0.1-29.9c0-14.3,0.1-28.5,0-42.8
		c-0.1-19.4-1-38.9-0.2-58.2c0.3-8.8-0.8-13.8-9.3-19.1C2.6,92,3.1,63.5,23.6,48.4c1.5-1.1,2.9-3.3,3.1-5.2
		c2.3-17,11.7-28.4,27.8-33.5C69.8,4.9,83.7,8.5,95.2,20c0.7,0.7,1.5,1.3,2.2,2c18.6-20.5,49.4-18.9,66.2,5.4c7.7-4,15.8-6,24.7-5.3
		c15,1.2,25.6,8.9,33.3,21.5c1.1,1.7,2.5,3.4,4.2,4.6c11.8,8.4,17.1,19.9,15.1,34c-1.8,12.9-9.3,22-21.4,27.2
		c-1.4,0.6-3.1,2.6-3.2,4c-0.4,5.8,0,11.7-0.2,17.5c-0.1,2.8,1.2,3.3,3.6,3.4c6.1,0.1,12.4-0.4,18.3,1c15.2,3.5,24.9,16.2,25,31.8
		c0.1,27.5,0,55,0,82.5c0,21.4-17,34.8-34,33.8C224.9,283.1,220.7,283.3,216.2,283.3z M45.5,321.5c53.1,0,105.8,0,158.8,0
		c0.1-1.8,0.3-3.3,0.3-4.7c0-44.2,0-88.3,0-132.5c0-13.5,0.1-27-0.1-40.5c0-1.5-1.6-4.1-2.5-4.2c-7.1-0.4-14.2-0.2-21.5-0.2
		c-0.1,2-0.3,3.3-0.3,4.6c0,13.5,0,27,0,40.5c0,38.2,0,76.3-0.1,114.5c0,5.4-2.6,8.4-6.5,8.3c-4.1-0.1-6.1-3-6.1-8.6
		c0-51.5,0-103,0-154.5c0-1.4-0.2-2.9-0.3-4.5c-12.1,0-23.8,0-36.1,0c0,2.9,0,5.3,0,7.8c0,49.2,0,98.3,0,147.5c0,1.7,0,3.3,0,5
		c-0.1,4.1-2,6.9-6.2,7.1s-6.3-2.5-6.4-6.7c0-1.3-0.2-2.7-0.2-4c0-40.7,0.1-81.3,0.1-122c0-1.6,0-3.2,0-4.7
		c-16-1.2-20.8-6.4-20.8-21.9c0-2.7,0-5.5,0-8.2c-4.6,0-8.4,0-12.6,0c0,2.5,0.1,4.6,0,6.7c-0.5,19-0.9,38-2.3,57
		c-2.3,30.5-0.6,61.3-0.6,91.9c0,2,0.1,4-0.2,6c-0.5,3.6-2.9,6.3-6.3,5.5c-2.3-0.5-4.3-3.4-6-5.5c-0.7-0.8-0.2-2.6-0.2-3.9
		c0-28.2,0-56.3,0-84.5c0-1.8,0-3.6,0-5.3c-17.6-2.2-22.5-8-22.5-25.2c0-12.7,0-25.3,0-38c0-1.6-0.3-3.2-0.4-4.8
		c-0.4,0.1-0.8,0.1-1.2,0.2C45.5,200.3,45.5,260.7,45.5,321.5z M166.9,100.2c13.3,0,26.7,0.1,40,0c11-0.1,19.7-7.3,22.4-18
		c2.4-9.5-2.3-19.8-11.1-25.3c-2.5-1.6-4.8-4-6.2-6.6c-8.8-17.1-29.7-22.3-45.1-10.9c-6.2,4.6-8.7,3.9-12.1-3.1
		C149.7,26,141.6,20,130.1,19.4c-11.7-0.6-20.4,4.6-26.7,14.4c-1.3,2-4.2,4.2-6.4,4.2c-1.9,0-4.4-2.6-5.7-4.6
		c-7.4-11.5-19.7-16.5-32.8-13C46.6,23.5,38.1,34.7,38,47.9c0,4.2-1.6,6.7-5.3,8.6c-9.9,5-14.6,15.4-12.2,26
		C22.8,92.8,32,100,43,100.2c2.7,0.1,5.3,0,8,0c6.6,0.1,8.4,1.8,8.4,8.2c0,10,0,20,0,30c0,16-0.1,32,0,48c0,6.4,5,10.5,9.4,7.3
		c2.1-1.5,3.8-5.1,3.8-7.8c0.3-25.8,0.2-51.6,0.2-77.5c0-6.4,1.9-8.3,8.4-8.3c6.7,0,13.3,0,20,0c7.5,0,9,1.6,9.1,9.1
		c0,14-0.1,28,0.1,42c0,1.8,1.3,3.9,2.6,5.3c0.6,0.6,3.3,0.3,3.9-0.5c1.1-1.4,1.8-3.5,1.8-5.3c0.1-14.2,0.1-28.3,0.1-42.5
		c0-6.2,1.9-8,8.1-8.1C140.2,100.2,153.5,100.2,166.9,100.2z M124.9,362.3c30.3,0,60.6,0,90.9,0c9.5,0,15.4-5.6,15.4-14.4
		c0-8.2-6.2-14.3-15.1-14.3c-60.8-0.1-121.5-0.1-182.3-0.1c-8.8,0-15.8,6.7-15.7,14.6c0.1,8.2,6.7,14.2,15.9,14.2
		C64.3,362.3,94.6,362.3,124.9,362.3z M216.2,272.3c4.8,0,9.1-0.3,13.4,0.1c11.2,0.9,22.4-8.1,22.4-22.1
		c-0.1-27.8,0.1-55.6-0.1-83.5c0-3.5-0.9-7.3-2.5-10.5c-5.5-10.7-20.5-15.1-33.3-10.2c0,1.4,0,2.9,0,4.4c0,7,0,7,7,7.7
		c10.2,0.9,18.9,10.5,19,21c0.1,19.5,0.1,39,0,58.5c-0.1,12.2-9.2,21.4-21.4,21.6c-1.4,0-2.9,0.2-4.4,0.3
		C216.2,263.9,216.2,267.7,216.2,272.3z M130.3,112.1c0,5.2,0,9.9,0,14.9c24.9,0,49.6,0,74.5,0c0-5.1,0-9.8,0-14.9
		C179.9,112.1,155.2,112.1,130.3,112.1z M216,248c10.1,0.9,14.9-2.4,14.9-10.1c0.1-19.3,0.1-38.6,0-58c0-6-3.1-9.6-8.8-11
		c-5.1-1.2-6.1-0.4-6.1,4.9c0,23.2,0,46.3,0,69.5C216,244.9,216,246.5,216,248z M84.2,127c5.1,0,9.7,0,14.7,0
		c0-4.5,0.1-8.6-0.1-12.7c-0.1-0.9-1.3-2.5-2.1-2.6c-4.1-0.3-8.2-0.1-12.5-0.1C84.2,117.1,84.2,121.9,84.2,127z M47.9,127.3
		c0-4.9,0.1-9.2-0.1-13.5c0-0.7-0.8-1.6-1.5-2.1c-0.3-0.2-1.6,0.4-1.6,0.6c0,4.9,0.1,9.8,0.3,14.7C45,127.1,46.5,127.2,47.9,127.3z"
		/>
	<path class="st0" d="M45.5,321.5c0-60.8,0-121.2,0-181.6c0.4-0.1,0.8-0.1,1.2-0.2c0.1,1.6,0.4,3.2,0.4,4.8c0,12.7,0.1,25.3,0,38
		c0,17.3,4.9,23,22.5,25.2c0,1.7,0,3.5,0,5.3c0,28.2,0,56.3,0,84.5c0,1.3-0.4,3.1,0.2,3.9c1.7,2.1,3.7,5,6,5.5
		c3.5,0.8,5.8-2,6.3-5.5c0.3-2,0.2-4,0.2-6c0-30.7-1.7-61.5,0.6-91.9c1.5-19.1,1.8-38,2.3-57c0.1-2.1,0-4.2,0-6.7c4.2,0,8,0,12.6,0
		c0,2.7,0,5.4,0,8.2c0,15.5,4.7,20.7,20.8,21.9c0,1.5,0,3.1,0,4.7c0,40.7-0.1,81.3-0.1,122c0,1.3,0.2,2.7,0.2,4
		c0.1,4.2,2.2,6.8,6.4,6.7c4.1-0.2,6.1-3,6.2-7.1c0-1.7,0-3.3,0-5c0-49.2,0-98.3,0-147.5c0-2.5,0-4.9,0-7.8c12.2,0,24,0,36.1,0
		c0.1,1.6,0.3,3,0.3,4.5c0,51.5,0,103,0,154.5c0,5.6,2.1,8.5,6.1,8.6c3.9,0.1,6.5-2.9,6.5-8.3c0.1-38.2,0.1-76.3,0.1-114.5
		c0-13.5,0-27,0-40.5c0-1.3,0.2-2.6,0.3-4.6c7.3,0,14.4-0.2,21.5,0.2c0.9,0,2.5,2.7,2.5,4.2c0.2,13.5,0.1,27,0.1,40.5
		c0,44.2,0,88.3,0,132.5c0,1.5-0.2,2.9-0.3,4.7C151.2,321.5,98.5,321.5,45.5,321.5z"/>
	<path class="st0" d="M166.9,100.2c-13.3,0-26.7,0-40,0c-6.2,0-8,1.9-8.1,8.1c0,14.2,0,28.3-0.1,42.5c0,1.8-0.7,3.9-1.8,5.3
		c-0.6,0.8-3.4,1.1-3.9,0.5c-1.3-1.4-2.6-3.5-2.6-5.3c-0.2-14-0.1-28-0.1-42c0-7.5-1.5-9.1-9.1-9.1c-6.7,0-13.3,0-20,0
		c-6.5,0-8.4,1.9-8.4,8.3c0,25.8,0.1,51.7-0.2,77.5c0,2.7-1.7,6.3-3.8,7.8c-4.4,3.1-9.3-0.9-9.4-7.3c-0.1-16,0-32,0-48
		c0-10,0-20,0-30c0-6.4-1.8-8.2-8.4-8.2c-2.7,0-5.3,0-8,0c-11-0.3-20.2-7.5-22.5-17.8c-2.4-10.6,2.3-21,12.2-26
		c3.8-1.9,5.3-4.3,5.3-8.6c0.1-13.3,8.6-24.4,20.5-27.6c13.2-3.5,25.4,1.5,32.8,13c1.3,2,3.8,4.6,5.7,4.6c2.2,0,5.1-2.2,6.4-4.2
		c6.3-9.8,15-15,26.7-14.4c11.5,0.6,19.6,6.6,24.7,16.8c3.5,7,5.9,7.7,12.1,3.1c15.4-11.3,36.3-6.2,45.1,10.9
		c1.3,2.6,3.7,5.1,6.2,6.6c8.7,5.5,13.4,15.8,11.1,25.3c-2.7,10.7-11.4,17.9-22.4,18C193.5,100.3,180.2,100.2,166.9,100.2z"/>
	<path class="st1" d="M44.7,112.3c0-0.2,1.4-0.8,1.6-0.6c0.7,0.5,1.5,1.4,1.5,2.1c0.1,4.3,0.1,8.6,0.1,13.5c-1.5-0.2-3-0.2-3-0.4"/>
</g>
</svg>
