<?xml version="1.0" encoding="utf-8"?>
<!-- Generator: Adobe Illustrator 27.4.0, SVG Export Plug-In . SVG Version: 6.00 Build 0)  -->
<svg version="1.1" id="Capa_1" xmlns="http://www.w3.org/2000/svg" xmlns:xlink="http://www.w3.org/1999/xlink" x="0px" y="0px"
	 viewBox="0 0 158.4 137.7" style="enable-background:new 0 0 158.4 137.7;" xml:space="preserve">
<style type="text/css">
	.st0{fill:#FFFFFF;}
	.st1{fill:#8800FF;}
</style>
<g>
	<g>
		<path class="st0" d="M87.1,86.1c-6.2,0-12.3,0-18.5,0c-0.8,0-0.9,0.1-0.9,0.9c0,4.8,0,9.5,0,14.2c0,4.7,0,9.4,0,14
			c0,1,0.1,1.1,1.1,1.1c3.8,0,7.6,0.1,11.4,0.1c2.1,0,4.1,0,6.2,0c1.7-0.1,1.7-0.1,1.7-1.9c0-6.9,0-13.9,0-20.8
			c0-2.2-0.1-4.5-0.1-6.7C88,86.4,87.7,86.1,87.1,86.1z"/>
		<path class="st0" d="M87.1,86.1c-6.2,0-12.3,0-18.5,0c-0.8,0-0.9,0.1-0.9,0.9c0,4.8,0,9.5,0,14.2c0,4.7,0,9.4,0,14
			c0,1,0.1,1.1,1.1,1.1c3.8,0,7.6,0.1,11.4,0.1c2.1,0,4.1,0,6.2,0c1.7-0.1,1.7-0.1,1.7-1.9c0-6.9,0-13.9,0-20.8
			c0-2.2-0.1-4.5-0.1-6.7C88,86.4,87.7,86.1,87.1,86.1z"/>
		<path class="st0" d="M87.1,86.1c-6.2,0-12.3,0-18.5,0c-0.8,0-0.9,0.1-0.9,0.9c0,4.8,0,9.5,0,14.2c0,4.7,0,9.4,0,14
			c0,1,0.1,1.1,1.1,1.1c3.8,0,7.6,0.1,11.4,0.1c2.1,0,4.1,0,6.2,0c1.7-0.1,1.7-0.1,1.7-1.9c0-6.9,0-13.9,0-20.8
			c0-2.2-0.1-4.5-0.1-6.7C88,86.4,87.7,86.1,87.1,86.1z"/>
		<path class="st0" d="M87.1,86.1c-6.2,0-12.3,0-18.5,0c-0.8,0-0.9,0.1-0.9,0.9c0,4.8,0,9.5,0,14.2c0,4.7,0,9.4,0,14
			c0,1,0.1,1.1,1.1,1.1c3.8,0,7.6,0.1,11.4,0.1c2.1,0,4.1,0,6.2,0c1.7-0.1,1.7-0.1,1.7-1.9c0-6.9,0-13.9,0-20.8
			c0-2.2-0.1-4.5-0.1-6.7C88,86.4,87.7,86.1,87.1,86.1z"/>
		<path class="st0" d="M87.1,86.1c-6.2,0-12.3,0-18.5,0c-0.8,0-0.9,0.1-0.9,0.9c0,4.8,0,9.5,0,14.2c0,4.7,0,9.4,0,14
			c0,1,0.1,1.1,1.1,1.1c3.8,0,7.6,0.1,11.4,0.1c2.1,0,4.1,0,6.2,0c1.7-0.1,1.7-0.1,1.7-1.9c0-6.9,0-13.9,0-20.8
			c0-2.2-0.1-4.5-0.1-6.7C88,86.4,87.7,86.1,87.1,86.1z"/>
		<path class="st1" d="M87.1,86.1c-6.2,0-12.3,0-18.5,0c-0.8,0-0.9,0.1-0.9,0.9c0,4.8,0,9.5,0,14.2c0,4.7,0,9.4,0,14
			c0,1,0.1,1.1,1.1,1.1c3.8,0,7.6,0.1,11.4,0.1c2.1,0,4.1,0,6.2,0c1.7-0.1,1.7-0.1,1.7-1.9c0-6.9,0-13.9,0-20.8
			c0-2.2-0.1-4.5-0.1-6.7C88,86.4,87.7,86.1,87.1,86.1z"/>
	</g>
	<g>
		<path class="st0" d="M112.1,59.5c-1.5-1.1-2.5-2.7-4.2-3.7c-1.2-0.7-2-2-3.2-2.7s-2-1.9-3.2-2.7c-1.4-0.9-2.3-2.3-3.7-3.2
			c-1.4-0.9-2.3-2.3-3.8-3.2c-1.1-0.7-1.9-1.8-3.1-2.6c-1.3-0.9-2.3-2.2-3.7-3.1c-1.2-0.8-2-2-3.3-2.8c-1.7-1.1-3.2-2.6-4.6-4
			c-0.7-0.7-1.4-0.6-2.1-0.5c-0.5,0.1-1,0.4-1.4,0.8c-0.9,0.7-1.7,1.5-2.7,2.2c-1.9,1.3-3.5,3-5.3,4.6c-1.1,0.9-2.2,1.8-3.3,2.7
			l-7.1,6.8c-5.3,4.5-10.5,8.9-15.8,13.4c-0.5,0.4-0.7,0.9-0.7,1.5c0,7.9,0,15.7,0,23.6c0,7.8,0,15.5,0,23.3c0,2.6,1.2,4.4,3.4,5.7
			c1.1,0.6,2.2,0.7,3.4,0.7c3.1,0,6.2,0,9.3,0c0.5,0,0.8-0.2,0.9-0.8c0-0.6,0.1-1.2,0.1-1.7c0-9.5,0-18.9,0-28.4
			c0-0.8,0-1.5,0.1-2.3c0.5-3.3,3.9-6.7,8.1-6.8c7.7,0,15.4,0,23.1,0c1.5,0,3,0.4,4.3,1.3c2.6,1.8,4,4.2,3.9,7.5
			c-0.1,9.8,0,19.6,0,29.5c0,1.7,0,1.7,1.7,1.7c2.9,0,5.8,0,8.7,0c0.6,0,1.2-0.1,1.8-0.2c3-0.8,5-3.2,5-6.5c0-15.8,0-31.5,0-47.3
			c0-0.4-0.2-0.8-0.4-1C113.7,60.6,112.9,60.1,112.1,59.5z"/>
		<path class="st0" d="M112.1,59.5c-1.5-1.1-2.5-2.7-4.2-3.7c-1.2-0.7-2-2-3.2-2.7s-2-1.9-3.2-2.7c-1.4-0.9-2.3-2.3-3.7-3.2
			c-1.4-0.9-2.3-2.3-3.8-3.2c-1.1-0.7-1.9-1.8-3.1-2.6c-1.3-0.9-2.3-2.2-3.7-3.1c-1.2-0.8-2-2-3.3-2.8c-1.7-1.1-3.2-2.6-4.6-4
			c-0.7-0.7-1.4-0.6-2.1-0.5c-0.5,0.1-1,0.4-1.4,0.8c-0.9,0.7-1.7,1.5-2.7,2.2c-1.9,1.3-3.5,3-5.3,4.6c-1.1,0.9-2.2,1.8-3.3,2.7
			l-7.1,6.8c-5.3,4.5-10.5,8.9-15.8,13.4c-0.5,0.4-0.7,0.9-0.7,1.5c0,7.9,0,15.7,0,23.6c0,7.8,0,15.5,0,23.3c0,2.6,1.2,4.4,3.4,5.7
			c1.1,0.6,2.2,0.7,3.4,0.7c3.1,0,6.2,0,9.3,0c0.5,0,0.8-0.2,0.9-0.8c0-0.6,0.1-1.2,0.1-1.7c0-9.5,0-18.9,0-28.4
			c0-0.8,0-1.5,0.1-2.3c0.5-3.3,3.9-6.7,8.1-6.8c7.7,0,15.4,0,23.1,0c1.5,0,3,0.4,4.3,1.3c2.6,1.8,4,4.2,3.9,7.5
			c-0.1,9.8,0,19.6,0,29.5c0,1.7,0,1.7,1.7,1.7c2.9,0,5.8,0,8.7,0c0.6,0,1.2-0.1,1.8-0.2c3-0.8,5-3.2,5-6.5c0-15.8,0-31.5,0-47.3
			c0-0.4-0.2-0.8-0.4-1C113.7,60.6,112.9,60.1,112.1,59.5z"/>
		<path class="st0" d="M112.1,59.5c-1.5-1.1-2.5-2.7-4.2-3.7c-1.2-0.7-2-2-3.2-2.7s-2-1.9-3.2-2.7c-1.4-0.9-2.3-2.3-3.7-3.2
			c-1.4-0.9-2.3-2.3-3.8-3.2c-1.1-0.7-1.9-1.8-3.1-2.6c-1.3-0.9-2.3-2.2-3.7-3.1c-1.2-0.8-2-2-3.3-2.8c-1.7-1.1-3.2-2.6-4.6-4
			c-0.7-0.7-1.4-0.6-2.1-0.5c-0.5,0.1-1,0.4-1.4,0.8c-0.9,0.7-1.7,1.5-2.7,2.2c-1.9,1.3-3.5,3-5.3,4.6c-1.1,0.9-2.2,1.8-3.3,2.7
			l-7.1,6.8c-5.3,4.5-10.5,8.9-15.8,13.4c-0.5,0.4-0.7,0.9-0.7,1.5c0,7.9,0,15.7,0,23.6c0,7.8,0,15.5,0,23.3c0,2.6,1.2,4.4,3.4,5.7
			c1.1,0.6,2.2,0.7,3.4,0.7c3.1,0,6.2,0,9.3,0c0.5,0,0.8-0.2,0.9-0.8c0-0.6,0.1-1.2,0.1-1.7c0-9.5,0-18.9,0-28.4
			c0-0.8,0-1.5,0.1-2.3c0.5-3.3,3.9-6.7,8.1-6.8c7.7,0,15.4,0,23.1,0c1.5,0,3,0.4,4.3,1.3c2.6,1.8,4,4.2,3.9,7.5
			c-0.1,9.8,0,19.6,0,29.5c0,1.7,0,1.7,1.7,1.7c2.9,0,5.8,0,8.7,0c0.6,0,1.2-0.1,1.8-0.2c3-0.8,5-3.2,5-6.5c0-15.8,0-31.5,0-47.3
			c0-0.4-0.2-0.8-0.4-1C113.7,60.6,112.9,60.1,112.1,59.5z"/>
		<path class="st0" d="M112.1,59.5c-1.5-1.1-2.5-2.7-4.2-3.7c-1.2-0.7-2-2-3.2-2.7s-2-1.9-3.2-2.7c-1.4-0.9-2.3-2.3-3.7-3.2
			c-1.4-0.9-2.3-2.3-3.8-3.2c-1.1-0.7-1.9-1.8-3.1-2.6c-1.3-0.9-2.3-2.2-3.7-3.1c-1.2-0.8-2-2-3.3-2.8c-1.7-1.1-3.2-2.6-4.6-4
			c-0.7-0.7-1.4-0.6-2.1-0.5c-0.5,0.1-1,0.4-1.4,0.8c-0.9,0.7-1.7,1.5-2.7,2.2c-1.9,1.3-3.5,3-5.3,4.6c-1.1,0.9-2.2,1.8-3.3,2.7
			l-7.1,6.8c-5.3,4.5-10.5,8.9-15.8,13.4c-0.5,0.4-0.7,0.9-0.7,1.5c0,7.9,0,15.7,0,23.6c0,7.8,0,15.5,0,23.3c0,2.6,1.2,4.4,3.4,5.7
			c1.1,0.6,2.2,0.7,3.4,0.7c3.1,0,6.2,0,9.3,0c0.5,0,0.8-0.2,0.9-0.8c0-0.6,0.1-1.2,0.1-1.7c0-9.5,0-18.9,0-28.4
			c0-0.8,0-1.5,0.1-2.3c0.5-3.3,3.9-6.7,8.1-6.8c7.7,0,15.4,0,23.1,0c1.5,0,3,0.4,4.3,1.3c2.6,1.8,4,4.2,3.9,7.5
			c-0.1,9.8,0,19.6,0,29.5c0,1.7,0,1.7,1.7,1.7c2.9,0,5.8,0,8.7,0c0.6,0,1.2-0.1,1.8-0.2c3-0.8,5-3.2,5-6.5c0-15.8,0-31.5,0-47.3
			c0-0.4-0.2-0.8-0.4-1C113.7,60.6,112.9,60.1,112.1,59.5z"/>
		<path class="st0" d="M112.1,59.5c-1.5-1.1-2.5-2.7-4.2-3.7c-1.2-0.7-2-2-3.2-2.7s-2-1.9-3.2-2.7c-1.4-0.9-2.3-2.3-3.7-3.2
			c-1.4-0.9-2.3-2.3-3.8-3.2c-1.1-0.7-1.9-1.8-3.1-2.6c-1.3-0.9-2.3-2.2-3.7-3.1c-1.2-0.8-2-2-3.3-2.8c-1.7-1.1-3.2-2.6-4.6-4
			c-0.7-0.7-1.4-0.6-2.1-0.5c-0.5,0.1-1,0.4-1.4,0.8c-0.9,0.7-1.7,1.5-2.7,2.2c-1.9,1.3-3.5,3-5.3,4.6c-1.1,0.9-2.2,1.8-3.3,2.7
			l-7.1,6.8c-5.3,4.5-10.5,8.9-15.8,13.4c-0.5,0.4-0.7,0.9-0.7,1.5c0,7.9,0,15.7,0,23.6c0,7.8,0,15.5,0,23.3c0,2.6,1.2,4.4,3.4,5.7
			c1.1,0.6,2.2,0.7,3.4,0.7c3.1,0,6.2,0,9.3,0c0.5,0,0.8-0.2,0.9-0.8c0-0.6,0.1-1.2,0.1-1.7c0-9.5,0-18.9,0-28.4
			c0-0.8,0-1.5,0.1-2.3c0.5-3.3,3.9-6.7,8.1-6.8c7.7,0,15.4,0,23.1,0c1.5,0,3,0.4,4.3,1.3c2.6,1.8,4,4.2,3.9,7.5
			c-0.1,9.8,0,19.6,0,29.5c0,1.7,0,1.7,1.7,1.7c2.9,0,5.8,0,8.7,0c0.6,0,1.2-0.1,1.8-0.2c3-0.8,5-3.2,5-6.5c0-15.8,0-31.5,0-47.3
			c0-0.4-0.2-0.8-0.4-1C113.7,60.6,112.9,60.1,112.1,59.5z"/>
		<path class="st1" d="M112.1,59.5c-1.5-1.1-2.5-2.7-4.2-3.7c-1.2-0.7-2-2-3.2-2.7s-2-1.9-3.2-2.7c-1.4-0.9-2.3-2.3-3.7-3.2
			c-1.4-0.9-2.3-2.3-3.8-3.2c-1.1-0.7-1.9-1.8-3.1-2.6c-1.3-0.9-2.3-2.2-3.7-3.1c-1.2-0.8-2-2-3.3-2.8c-1.7-1.1-3.2-2.6-4.6-4
			c-0.7-0.7-1.4-0.6-2.1-0.5c-0.5,0.1-1,0.4-1.4,0.8c-0.9,0.7-1.7,1.5-2.7,2.2c-1.9,1.3-3.5,3-5.3,4.6c-1.1,0.9-2.2,1.8-3.3,2.7
			l-7.1,6.8c-5.3,4.5-10.5,8.9-15.8,13.4c-0.5,0.4-0.7,0.9-0.7,1.5c0,7.9,0,15.7,0,23.6c0,7.8,0,15.5,0,23.3c0,2.6,1.2,4.4,3.4,5.7
			c1.1,0.6,2.2,0.7,3.4,0.7c3.1,0,6.2,0,9.3,0c0.5,0,0.8-0.2,0.9-0.8c0-0.6,0.1-1.2,0.1-1.7c0-9.5,0-18.9,0-28.4
			c0-0.8,0-1.5,0.1-2.3c0.5-3.3,3.9-6.7,8.1-6.8c7.7,0,15.4,0,23.1,0c1.5,0,3,0.4,4.3,1.3c2.6,1.8,4,4.2,3.9,7.5
			c-0.1,9.8,0,19.6,0,29.5c0,1.7,0,1.7,1.7,1.7c2.9,0,5.8,0,8.7,0c0.6,0,1.2-0.1,1.8-0.2c3-0.8,5-3.2,5-6.5c0-15.8,0-31.5,0-47.3
			c0-0.4-0.2-0.8-0.4-1C113.7,60.6,112.9,60.1,112.1,59.5z"/>
	</g>
	<path d="M136.3,67.9c-3-2.6-6-5.2-9-7.8c-2.1-1.7-4.2-3.4-6.2-5.1c-1.9-1.5-3.7-3.1-5.5-4.7c-1.7-1.4-3.4-2.9-5.1-4.3
		c-0.9-0.7-1.8-1.4-2.7-2.2c-4.2-3.6-8.4-7.3-12.7-10.9c-4.5-3.8-9.1-7.7-13.6-11.5c-2-1.7-4.6-1.8-6.4-0.2c-1.3,1-2.5,2.1-3.8,3.2
		c-3.2,2.6-6.4,5.2-9.5,7.9c-3.7,3.1-7.3,6.2-10.9,9.3c-2.6,2.2-5.1,4.3-7.7,6.5c-1.9,1.6-3.9,3.3-5.8,4.9c-2,1.6-4,3.2-6,4.9
		c-2.2,1.9-4.3,3.8-6.5,5.7c-1.5,1.3-3.1,2.6-4.6,3.9c-2.4,2-2.7,4.1-0.9,6.6c0.7,1,2.6,2.2,4.3,1.6c1-0.3,1.9-0.9,2.8-1.5
		c1.2-0.8,2.2-1.7,3.3-2.5c0.4-0.3,1-0.3,1.5-0.4c0,0.4,0.2,0.8,0.2,1.2c0,12.2,0,24.3,0,36.5c0,1.1,0.1,2.2,0.3,3.3
		c0.7,3.9,2.3,7.2,5.4,9.8c3.3,2.7,7,3.9,11.2,3.9c19.9,0,39.8,0,59.7,0c1,0,1.9-0.1,2.9-0.3c4.6-0.9,8.4-3,10.8-7.2
		c1.6-2.9,2.6-6,2.6-9.3c0-12.4,0-24.7,0-37c0-0.3,0-0.6,0-1.2c0.6,0.2,1.1,0.3,1.8,0.7c0.4,0.2,0.8,0.5,1.1,0.7
		c1.3,1,2.7,2,4.1,2.9c0.9,0.5,1.9,0.8,2.9,0.5c1.9-0.5,3.1-1.8,3.5-3.7C138.2,70.4,137.6,69,136.3,67.9z M88.1,114.5
		c0,1.8,0,1.8-1.7,1.9c-2.1,0-4.1,0-6.2,0c-3.8,0-7.6-0.1-11.4-0.1c-1,0-1.1-0.1-1.1-1.1c0-4.6,0-9.3,0-14c0-4.7,0-9.4,0-14.2
		c0-0.8,0.1-0.9,0.9-0.9c6.2,0,12.3,0,18.5,0c0.6,0,0.9,0.3,0.9,0.9c0,2.2,0.1,4.5,0.1,6.7C88.1,100.6,88.1,107.6,88.1,114.5z
		 M114.7,109.6c0,3.3-2,5.7-5,6.5c-0.6,0.1-1.2,0.2-1.8,0.2c-2.9,0-5.8,0-8.7,0c-1.7,0-1.7,0-1.7-1.7c0-9.9-0.1-19.7,0-29.5
		c0.1-3.3-1.3-5.7-3.9-7.5c-1.3-0.9-2.8-1.3-4.3-1.3c-7.7,0-15.4,0-23.1,0c-4.2,0.1-7.6,3.5-8.1,6.8C58,83.9,58,84.6,58,85.4
		c0,9.5,0,18.9,0,28.4c0,0.5-0.1,1.1-0.1,1.7c-0.1,0.6-0.4,0.8-0.9,0.8c-3.1,0-6.2,0-9.3,0c-1.2,0-2.3-0.1-3.4-0.7
		c-2.2-1.3-3.4-3.1-3.4-5.7c0-7.8,0-15.5,0-23.3c0-7.9,0-15.7,0-23.6c0-0.6,0.2-1.1,0.7-1.5c5.3-4.5,10.5-8.9,15.8-13.4l7.1-6.8
		c1.1-0.9,2.2-1.8,3.3-2.7c1.8-1.6,3.4-3.3,5.3-4.6c1-0.7,1.8-1.5,2.7-2.2c0.4-0.4,0.9-0.7,1.4-0.8c0.7-0.1,1.4-0.2,2.1,0.5
		c1.4,1.4,2.9,2.9,4.6,4c1.3,0.8,2.1,2,3.3,2.8c1.4,0.9,2.4,2.2,3.7,3.1c1.2,0.8,2,1.9,3.1,2.6c1.5,0.9,2.4,2.3,3.8,3.2
		c1.4,0.9,2.3,2.3,3.7,3.2c1.2,0.8,2,2,3.2,2.7s2,2,3.2,2.7c1.7,1,2.7,2.6,4.2,3.7c0.8,0.6,1.6,1.1,2.2,1.8c0.2,0.2,0.4,0.6,0.4,1
		C114.7,78.1,114.7,93.8,114.7,109.6z"/>
</g>
</svg>
