<?xml version="1.0" encoding="utf-8"?>
<!-- Generator: Adobe Illustrator 27.4.0, SVG Export Plug-In . SVG Version: 6.00 Build 0)  -->
<svg version="1.1" id="Capa_1" xmlns="http://www.w3.org/2000/svg" xmlns:xlink="http://www.w3.org/1999/xlink" x="0px" y="0px"
	 viewBox="0 0 158.4 137.7" style="enable-background:new 0 0 158.4 137.7;" xml:space="preserve">
<style type="text/css">
	.st0{fill:#911EFF;}
</style>
<g>
	<g>
		<path d="M116.1,119.5c0,0,2-52.5-31.1-53.5c-33.2-1.1-34.2,53.5-34.2,53.5H116.1z"/>
		<path class="st0" d="M118,121.5H48.8l0-2c0-1.3,0.8-33.1,16.4-48c5.5-5.2,12.1-7.7,19.8-7.5c7.8,0.3,14.5,3.2,19.7,8.9
			c14.4,15.4,13.4,45.5,13.4,46.8L118,121.5z M52.9,117.5h61.2c0-6.8-1-29.9-12.3-42c-4.5-4.8-10.2-7.4-16.9-7.6
			c-6.6-0.2-12.2,1.9-16.9,6.4C55.7,86,53.3,110.3,52.9,117.5z"/>
	</g>
	<g>
		<path d="M107.6,35.2c0,0-0.1-0.2-0.2-0.8c0.2,1.2,0.3,2.4,0.3,3.6C107.7,50.8,97,61,83.8,61S59.9,50.8,59.9,38.1
			c0-1.7,0.2-3.3,0.6-4.7c-1.1-1.2-3.2-3.9-4.8-7c-2.2-4.5-1.5-10.5-1.5-10.5s4.5,0.2,8.5,1.3c1.9,0.6,4.5,1.7,6.7,2.8
			c4.1-3,9-4.7,14.5-4.7c5.5,0,10.7,1.8,14.6,4.8c1.3-1,3.1-2.2,5.1-3.2c4.5-2.2,10.5-1.7,10.5-1.7s-0.2,4.5-1.3,8.5
			C111.5,27.6,107.6,35.2,107.6,35.2z"/>
		<path class="st0" d="M83.8,63c-14.3,0-25.9-11.2-25.9-24.9c0-1.4,0.1-2.8,0.4-4.2c-1.4-1.6-3.1-4-4.5-6.7
			c-2.4-5-1.8-11.3-1.8-11.6l0.2-1.9l1.9,0.1c0.2,0,4.8,0.2,8.9,1.4c1.7,0.5,3.9,1.4,6,2.4c4.4-2.9,9.4-4.4,14.7-4.4
			c5.3,0,10.5,1.5,14.6,4.4c1.4-1,2.8-1.8,4.2-2.5c5-2.4,11.3-1.9,11.5-1.9l1.9,0.2l-0.1,1.9c0,0.2-0.2,4.8-1.4,8.9
			c-1.1,3.6-4.2,9.9-5,11.5c0.1,0.8,0.1,1.6,0.1,2.4C109.7,51.8,98.1,63,83.8,63z M56,18c0,1.9,0.2,5,1.4,7.4
			c1.4,2.7,3.3,5.3,4.5,6.6l0.7,0.8l-0.2,1c-0.3,1.4-0.5,2.9-0.5,4.3c0,11.5,9.8,20.9,21.9,20.9s21.9-9.4,21.9-20.9
			c0-1.1-0.1-2.2-0.3-3.3l1-0.2l-0.6-0.3c0-0.1,3.8-7.5,4.9-11.2c0.6-2.1,0.9-4.4,1.1-5.9c-1.9,0-5,0.3-7.4,1.5
			c-1.5,0.7-3.1,1.8-4.7,3l-1.2,0.9l-1.2-0.9c-3.7-2.9-8.4-4.4-13.4-4.4c-4.8,0-9.5,1.5-13.4,4.4l-1,0.7l-1.1-0.5
			c-2.2-1.1-4.7-2.1-6.4-2.6C59.9,18.5,57.6,18.2,56,18z"/>
	</g>
</g>
</svg>
