<?xml version="1.0" encoding="utf-8"?>
<!-- Generator: Adobe Illustrator 27.4.0, SVG Export Plug-In . SVG Version: 6.00 Build 0)  -->
<svg version="1.1" id="Capa_1" xmlns="http://www.w3.org/2000/svg" xmlns:xlink="http://www.w3.org/1999/xlink" x="0px" y="0px"
	 viewBox="0 0 158.4 137.7" style="enable-background:new 0 0 158.4 137.7;" xml:space="preserve">
<style type="text/css">
	.st0{fill:#7C00DD;}
</style>
<g>
	<path d="M70.7,12c7.1,0,14.1,0,21.2,0c0.4,0.2,0.8,0.5,1.2,0.7c3.2,1.2,4.6,3.2,4.6,6.6c0,1.9,0,3.8,0,5.8c0,0.7,0.2,1.1,0.9,1.3
		c0.4,0.1,0.8,0.3,1.2,0.5c0.7,0.4,1.1,0.2,1.6-0.4c1.3-1.5,2.6-2.9,4-4.3c2.7-2.8,7.3-3,10-0.4c4,3.8,7.9,7.7,11.8,11.7
		c2.8,2.9,2.7,7.2-0.2,10c-0.9,0.9-1.7,1.7-2.6,2.6c-0.7,0.7-1.7,1.3-1.9,2c-0.2,0.8,0.6,1.7,0.9,2.6c0.1,0.4,0.3,0.7,0.4,1.1
		c0.2,0.7,0.6,1,1.4,0.9c1.5-0.1,3,0,4.5,0c3.7,0,6.4,3.4,6.5,6.7c0.2,5.9,0,11.8,0.1,17.7c0,1.8-0.6,3.3-1.5,4.8
		c-1.2,2-3.1,3-5.4,2.9c-0.8,0-1.7,0.1-2.5,0c-2-0.3-3.1,0.4-3.5,2.3c0,0.1-0.1,0.2-0.1,0.2c0.1,0.4,0,0.8,0.3,1.1
		c1.2,1.2,2.5,2.3,3.7,3.5c2.8,2.9,2.8,7.1,0,10c-3.7,3.9-7.5,7.7-11.4,11.4c-0.8,0.8-1.8,1.4-2.9,1.7c-3.2,1-5.8,0-8-2.5
		c-0.9-1-1.8-2.4-2.9-2.8c-0.9-0.3-2.3,0.8-3.4,1.2c0,0-0.1,0-0.1,0c-0.2,0.3-0.6,0.7-0.7,1.1c-0.1,1.3-0.1,2.5,0,3.8
		c0.2,3-1,5.4-3.1,7.3c-1.6,1.5-3.4,2.5-5.8,2.5c-5.1-0.2-10.2-0.1-15.3,0c-1.6,0-2.9-0.5-4.1-1.4c-3.1-2.3-4.4-5.3-4.1-9.1
		c0.1-1.2,0.4-2.8-0.2-3.7c-0.6-0.9-2.2-1.1-3.4-1.7c-0.6-0.3-0.9-0.1-1.3,0.3c-0.9,1-1.9,2-2.8,3c-3,3.2-7.7,3.3-10.8,0.2
		c-3.6-3.6-7.3-7.2-10.9-10.8c-3.3-3.3-3.3-7.6,0.1-10.9c1.3-1.3,2.5-2.7,3.8-4c-0.2-2.5-1.8-3.1-4.1-2.7c-0.5,0.1-1,0-1.5,0
		c-4.3,0.1-7.2-2-9.2-5.6c-0.1-0.2-0.4-0.3-0.5-0.5c0-6.7,0-13.4,0-20c0.2-0.1,0.4-0.2,0.5-0.4c2-3.6,4.9-5.5,9.1-5.4
		c1.1,0,2.2-0.1,3.3,0c1.1,0.1,1.8-0.2,2-1.3c0.2-0.8,0.6-1.5,0.9-2.2c0.3-0.6,0.2-0.9-0.3-1.4c-1.6-1.5-3.3-3-4.8-4.7
		c-2.4-2.7-2.4-6.8,0.1-9.4c3.8-4,7.7-7.9,11.7-11.8c2.8-2.7,7.2-2.6,10,0.1c1.2,1.2,2.4,2.4,3.5,3.6c1.6,1.7,1.6,1.7,3.8,0.8
		c0.7-0.3,0.9-0.7,0.9-1.4c0-2,0-4,0-6c0-3.2,1.5-5.3,4.5-6.5C70.1,12.5,70.4,12.2,70.7,12z M129.6,68.9c0-2.4,0-4.8,0-7.2
		c0-1.7-0.7-2.5-2.4-2.5c-1.7,0-3.5-0.1-5.2,0c-1.5,0.1-2.4-0.6-3-2c-1.2-2.9-2.5-5.7-3.8-8.5c-0.7-1.4-0.6-2.1,0.5-3.2
		c1.8-1.7,3.5-3.4,5.3-5.2c1.3-1.3,1.3-2.4,0.1-3.6c-2.9-2.9-5.8-5.8-8.8-8.7c-1.4-1.3-2.4-1.3-3.7,0.1c-1.8,1.9-3.6,3.8-5.4,5.7
		c-0.9,0.9-1.8,1-3,0.5c-2.5-1.1-5-2.2-7.5-3.2c-1.2-0.5-1.7-1.2-1.7-2.5c0-2.4,0-4.9,0-7.3c0-2.1-0.8-2.9-2.9-2.9
		c-4.6,0-9.2,0-13.8,0c-1.8,0-2.6,0.7-2.6,2.6c0,2.5,0,5,0,7.5c0,1.6-0.4,2.1-1.9,2.7c-2.4,1-4.8,2-7.2,3.1
		c-1.4,0.6-2.1,0.6-3.2-0.5c-1.9-1.9-3.7-3.8-5.6-5.7c-1.4-1.4-2.5-1.5-3.9,0c-2.8,2.8-5.7,5.7-8.5,8.5c-1.4,1.4-1.4,2.5,0,3.9
		c1.9,1.8,3.8,3.6,5.7,5.3c0.9,0.8,1,1.7,0.6,2.8c-1.3,2.9-2.7,5.9-3.9,8.8c-0.5,1.2-1.3,1.8-2.6,1.8c-2.5,0-5,0-7.5,0
		c-1.8,0-2.8,1.1-2.8,2.9c0,4.5,0,9,0,13.4c0,2,1.1,3,3.1,3c2.5,0,4.9,0,7.4,0c1.2,0,2,0.5,2.5,1.7c1,2.4,2.1,4.8,3.1,7.2
		c0.5,1.1,0.4,2.1-0.5,3c-1.7,1.6-3.3,3.2-4.9,4.7c-1.4,1.3-1.4,2.4-0.1,3.7c2.9,2.9,5.8,5.8,8.8,8.7c1.3,1.2,2.4,1.2,3.6-0.1
		c1.5-1.5,2.9-3.1,4.3-4.6c1-1,1.8-1.1,3.1-0.6c2.9,1.3,5.8,2.6,8.7,3.9c1.4,0.6,1.8,1.1,1.8,2.7c0,2.6,0,5.1,0,7.7
		c0,1.6,1.1,2.7,2.7,2.7c4.6,0,9.2,0,13.8,0c1.6,0,2.8-1.2,2.8-2.8c0-2.5,0-5,0-7.4c0-1.4,0.5-2.2,1.8-2.7c2.9-1.2,5.8-2.6,8.7-3.9
		c1.1-0.5,2-0.4,2.8,0.4c1.5,1.5,2.9,3,4.3,4.5c1.4,1.5,2.4,1.5,3.9,0.1c2.9-2.9,5.8-5.8,8.7-8.7c1.2-1.2,1.2-2.4-0.1-3.6
		c-1.6-1.5-3.2-3-4.8-4.5c-0.9-0.8-1-1.7-0.5-2.9c1.1-2.5,2.2-4.9,3.2-7.4c0.6-1.4,1.1-1.8,2.7-1.8c1.8,0,3.5,0,5.3,0
		c1.8,0,2.5-0.8,2.6-2.6C129.7,73.6,129.6,71.2,129.6,68.9z"/>
	<path class="st0" d="M129.6,68.9c0,2.4,0,4.7,0,7.1c0,1.8-0.8,2.6-2.6,2.6c-1.8,0-3.5,0-5.3,0c-1.6,0-2.1,0.4-2.7,1.8
		c-1.1,2.5-2.1,5-3.2,7.4c-0.5,1.1-0.4,2,0.5,2.9c1.6,1.5,3.2,3,4.8,4.5c1.2,1.2,1.3,2.4,0.1,3.6c-2.9,2.9-5.8,5.8-8.7,8.7
		c-1.4,1.4-2.5,1.4-3.9-0.1c-1.4-1.5-2.9-3-4.3-4.5c-0.8-0.8-1.7-0.9-2.8-0.4c-2.9,1.3-5.8,2.7-8.7,3.9c-1.3,0.5-1.8,1.3-1.8,2.7
		c0.1,2.5,0,4.9,0,7.4c0,1.6-1.2,2.8-2.8,2.8c-4.6,0-9.2,0-13.8,0c-1.6,0-2.6-1.1-2.7-2.7c0-2.6,0-5.1,0-7.7c0-1.6-0.4-2-1.8-2.7
		c-2.9-1.3-5.8-2.6-8.7-3.9c-1.2-0.6-2.1-0.5-3.1,0.6c-1.5,1.5-2.9,3.1-4.3,4.6c-1.2,1.3-2.4,1.3-3.6,0.1c-2.9-2.9-5.9-5.8-8.8-8.7
		c-1.3-1.3-1.3-2.4,0.1-3.7c1.6-1.6,3.3-3.2,4.9-4.7c0.9-0.9,1-1.8,0.5-3C46,85.1,45,82.7,44,80.2c-0.5-1.2-1.3-1.7-2.5-1.7
		c-2.5,0-4.9,0-7.4,0c-2,0-3-1.1-3.1-3c0-4.5,0-9,0-13.4c0-1.8,1.1-2.9,2.8-2.9c2.5,0,5,0,7.5,0c1.3,0,2.1-0.5,2.6-1.8
		c1.3-3,2.6-5.9,3.9-8.8c0.5-1.1,0.3-2-0.6-2.8c-1.9-1.8-3.8-3.6-5.7-5.3c-1.5-1.4-1.5-2.4,0-3.9c2.8-2.8,5.7-5.7,8.5-8.5
		c1.4-1.4,2.5-1.4,3.9,0c1.9,1.9,3.7,3.8,5.6,5.7c1.1,1.1,1.8,1.2,3.2,0.5c2.4-1.1,4.8-2.1,7.2-3.1c1.5-0.6,1.9-1.1,1.9-2.7
		c0-2.5,0-5,0-7.5c0-1.8,0.8-2.6,2.6-2.6c4.6,0,9.2,0,13.8,0c2.1,0,2.9,0.8,2.9,2.9c0,2.4,0,4.9,0,7.3c0,1.3,0.5,2,1.7,2.5
		c2.5,1,5,2.1,7.5,3.2c1.2,0.5,2.1,0.4,3-0.5c1.8-1.9,3.6-3.8,5.4-5.7c1.3-1.4,2.4-1.4,3.7-0.1c2.9,2.9,5.9,5.8,8.8,8.7
		c1.3,1.3,1.2,2.4-0.1,3.6c-1.8,1.7-3.6,3.4-5.3,5.2c-1.2,1.1-1.2,1.8-0.5,3.2c1.3,2.8,2.6,5.6,3.8,8.5c0.6,1.4,1.4,2,3,2
		c1.7-0.1,3.5,0,5.2,0c1.7,0,2.4,0.8,2.4,2.5C129.7,64.1,129.6,66.5,129.6,68.9z M80.4,89.2c12-0.1,21.4-9.7,21.4-21.7
		c-0.1-11.6-9.8-21.2-21.5-21.1c-12,0.1-21.5,9.6-21.4,21.5C59,79.7,68.6,89.2,80.4,89.2z"/>
	<path d="M80.4,89.2C68.6,89.2,59,79.7,58.9,67.9C58.8,56,68.4,46.4,80.3,46.3c11.7-0.1,21.4,9.5,21.5,21.1
		C101.9,79.5,92.4,89.1,80.4,89.2z M80.3,84.9c9.5,0,17.2-7.6,17.2-17.1c0-9.4-7.6-17.2-17-17.2c-9.6,0-17.3,7.6-17.3,17.1
		C63.2,77.2,70.8,84.9,80.3,84.9z"/>
</g>
</svg>
